<svg xmlns="http://www.w3.org/2000/svg" xmlns:xlink="http://www.w3.org/1999/xlink" version="1.1" width="256" height="256" viewBox="0 0 256 256" xml:space="preserve">

<defs>
</defs>
<g style="stroke: none; stroke-width: 0; stroke-dasharray: none; stroke-linecap: butt; stroke-linejoin: miter; stroke-miterlimit: 10; fill: none; fill-rule: nonzero; opacity: 1;" transform="translate(1.4065934065934016 1.4065934065934016) scale(2.81 2.81)" >
	<path d="M 27.054 32.271 h -3.163 c -1.104 0 -2 -0.896 -2 -2 c 0 -1.104 0.896 -2 2 -2 h 3.163 c 1.104 0 2 0.896 2 2 C 29.054 31.376 28.158 32.271 27.054 32.271 z" style="stroke: none; stroke-width: 1; stroke-dasharray: none; stroke-linecap: butt; stroke-linejoin: miter; stroke-miterlimit: 10; fill: rgb(0,0,0); fill-rule: nonzero; opacity: 1;" transform=" matrix(1 0 0 1 0 0) " stroke-linecap="round" />
	<path d="M 66.109 32.271 h -32.47 c -1.104 0 -2 -0.896 -2 -2 c 0 -1.104 0.896 -2 2 -2 h 32.47 c 1.104 0 2 0.896 2 2 C 68.109 31.376 67.214 32.271 66.109 32.271 z" style="stroke: none; stroke-width: 1; stroke-dasharray: none; stroke-linecap: butt; stroke-linejoin: miter; stroke-miterlimit: 10; fill: rgb(0,0,0); fill-rule: nonzero; opacity: 1;" transform=" matrix(1 0 0 1 0 0) " stroke-linecap="round" />
	<path d="M 27.054 42.02 h -3.163 c -1.104 0 -2 -0.896 -2 -2 s 0.896 -2 2 -2 h 3.163 c 1.104 0 2 0.896 2 2 S 28.158 42.02 27.054 42.02 z" style="stroke: none; stroke-width: 1; stroke-dasharray: none; stroke-linecap: butt; stroke-linejoin: miter; stroke-miterlimit: 10; fill: rgb(0,0,0); fill-rule: nonzero; opacity: 1;" transform=" matrix(1 0 0 1 0 0) " stroke-linecap="round" />
	<path d="M 66.109 42.02 h -32.47 c -1.104 0 -2 -0.896 -2 -2 s 0.896 -2 2 -2 h 32.47 c 1.104 0 2 0.896 2 2 S 67.214 42.02 66.109 42.02 z" style="stroke: none; stroke-width: 1; stroke-dasharray: none; stroke-linecap: butt; stroke-linejoin: miter; stroke-miterlimit: 10; fill: rgb(0,0,0); fill-rule: nonzero; opacity: 1;" transform=" matrix(1 0 0 1 0 0) " stroke-linecap="round" />
	<path d="M 27.054 51.769 h -3.163 c -1.104 0 -2 -0.896 -2 -2 c 0 -1.104 0.896 -2 2 -2 h 3.163 c 1.104 0 2 0.896 2 2 C 29.054 50.873 28.158 51.769 27.054 51.769 z" style="stroke: none; stroke-width: 1; stroke-dasharray: none; stroke-linecap: butt; stroke-linejoin: miter; stroke-miterlimit: 10; fill: rgb(0,0,0); fill-rule: nonzero; opacity: 1;" transform=" matrix(1 0 0 1 0 0) " stroke-linecap="round" />
	<path d="M 66.109 51.769 h -32.47 c -1.104 0 -2 -0.896 -2 -2 c 0 -1.104 0.896 -2 2 -2 h 32.47 c 1.104 0 2 0.896 2 2 C 68.109 50.873 67.214 51.769 66.109 51.769 z" style="stroke: none; stroke-width: 1; stroke-dasharray: none; stroke-linecap: butt; stroke-linejoin: miter; stroke-miterlimit: 10; fill: rgb(0,0,0); fill-rule: nonzero; opacity: 1;" transform=" matrix(1 0 0 1 0 0) " stroke-linecap="round" />
	<path d="M 66.109 61.517 H 55.943 c -1.104 0 -2 -0.896 -2 -2 s 0.896 -2 2 -2 h 10.166 c 1.104 0 2 0.896 2 2 S 67.214 61.517 66.109 61.517 z" style="stroke: none; stroke-width: 1; stroke-dasharray: none; stroke-linecap: butt; stroke-linejoin: miter; stroke-miterlimit: 10; fill: rgb(0,0,0); fill-rule: nonzero; opacity: 1;" transform=" matrix(1 0 0 1 0 0) " stroke-linecap="round" />
	<path d="M 12.649 90 c -0.285 0 -0.572 -0.061 -0.84 -0.186 C 11.102 89.487 10.65 88.779 10.65 88 V 2 c 0 -0.779 0.452 -1.487 1.159 -1.814 c 0.707 -0.328 1.539 -0.215 2.134 0.289 l 6.794 5.756 l 6.795 -5.756 c 0.746 -0.632 1.84 -0.632 2.586 0 l 6.794 5.756 l 6.795 -5.756 c 0.746 -0.632 1.84 -0.632 2.586 0 l 6.795 5.756 l 6.795 -5.756 c 0.746 -0.632 1.84 -0.632 2.586 0 l 6.794 5.756 l 6.795 -5.756 c 0.594 -0.504 1.427 -0.617 2.134 -0.289 C 78.898 0.513 79.35 1.221 79.35 2 V 88 c 0 0.779 -0.452 1.487 -1.159 1.814 c -0.707 0.329 -1.54 0.214 -2.134 -0.288 l -6.795 -5.757 l -6.794 5.757 c -0.746 0.631 -1.84 0.631 -2.586 0 l -6.795 -5.757 l -6.795 5.757 c -0.746 0.631 -1.84 0.631 -2.586 0 l -6.795 -5.757 l -6.794 5.757 c -0.746 0.631 -1.84 0.631 -2.586 0 l -6.795 -5.757 l -6.794 5.757 C 13.574 89.838 13.114 90 12.649 90 z M 36.912 79.148 c 0.46 0 0.92 0.158 1.293 0.474 L 45 85.379 l 6.795 -5.757 c 0.746 -0.631 1.84 -0.631 2.586 0 l 6.795 5.757 l 6.794 -5.757 c 0.746 -0.631 1.84 -0.631 2.586 0 l 4.795 4.062 V 6.316 l -4.795 4.062 c -0.746 0.632 -1.84 0.632 -2.586 0 l -6.794 -5.756 l -6.795 5.756 c -0.746 0.632 -1.84 0.632 -2.586 0 L 45 4.621 l -6.795 5.756 c -0.746 0.632 -1.84 0.632 -2.586 0 l -6.794 -5.756 l -6.795 5.756 c -0.746 0.632 -1.84 0.632 -2.586 0 L 14.65 6.316 v 77.369 l 4.794 -4.062 c 0.746 -0.631 1.84 -0.631 2.586 0 l 6.795 5.757 l 6.794 -5.757 C 35.992 79.306 36.452 79.148 36.912 79.148 z" style="stroke: none; stroke-width: 1; stroke-dasharray: none; stroke-linecap: butt; stroke-linejoin: miter; stroke-miterlimit: 10; fill: rgb(0,0,0); fill-rule: nonzero; opacity: 1;" transform=" matrix(1 0 0 1 0 0) " stroke-linecap="round" />
</g>
</svg>